Patient4_TMGait_0pt5_01_left_09_EMG.mot
version=1
nRows=27
nColumns=33
inDegrees=no
endheader
time	1LAddLong	2LGlutMax	3LGlutMed	4LIliopsoas	5LSemiMemb	6LBicFemLong	7LRecFem	8LVastMed	9LVastLat	10LGasMed	11LTibAnt	12lTibPost	13LPeroneusLong	14LSol	15LExtDigLong	16LFlexDigLong	17RAddLong	18RGlutMax	19RGlutMed	20RIliopsoas	21RSemiMemb	22RBicFemLong	23RRecFem	24RVastMed	25RVastLat	26RGasMed	27RTibAnt	28RTibPost	29RPeroneusLong	30RSol	31RExtDigLong	32RFlexDigLong
13.473	0.000305	0.11993	-0.1091	0.01297	0.012512	-0.039673	0.13245	0.022278	0.1535	0.005188	-0.079498	-0.006866	0.019989	-0.1886	0.14603	0.026703	-0.017853	-0.20859	0.060883	0.168	-0.007324	0.61111	0.36194	0	-0.18295	-0.16342	0.2327	-0.030975	-0.097809	0.046844	0.006866	-0.006256
13.474	0.00351	0.13412	-0.10361	0.003052	0.01236	-0.034637	0.18662	0.008392	0.16357	-0.010223	-0.094299	0.006104	0.008545	-0.12161	0.43182	0.021057	-0.023956	-0.19089	-0.11917	0.11749	-0.021973	0.85129	0.26871	-0.075226	-0.089417	-0.12589	0.14526	-0.036774	-0.17227	-0.078888	-0.001526	-0.007629
13.475	0.003815	0.12054	-0.11124	0.004578	0.009918	-0.033264	0.12283	0.012054	0.16846	-0.018616	-0.033417	0.005188	-0.039063	-0.10498	0.075073	0.010834	-0.022583	-0.22659	-0.45334	0.06546	-0.023041	0.5365	0.17105	-0.084839	-0.072784	-0.11978	0.083923	-0.051727	0.056152	-0.12665	-0.006256	0.004425
13.476	0.002136	0.13702	-0.10025	0.009003	-0.01297	-0.07309	0.052032	0.010376	0.15823	-0.03479	0.032196	-0.001221	-0.069275	-0.057068	0.15732	0.009155	-0.010376	-0.25284	-0.35324	-0.091095	-0.039368	0.22995	0.048218	-0.007477	0.060577	-0.16586	-0.01297	-0.083618	-0.023956	-0.008392	-0.006714	0.004272
13.477	0.007324	0.12741	-0.096283	0.005188	0.010376	-0.10284	0.011444	0.00061	0.15701	-0.059814	0.052795	0.000916	-0.035095	-0.042725	0.16052	0.025635	0.006104	-0.22049	0.022736	-0.16754	-0.039063	0.088043	-0.019684	0.083771	0.18738	-0.062866	-0.004883	-0.053711	0.32364	0.034485	0.008392	0.000458
13.478	-0.00412	0.13214	-0.086823	-0.001831	0.019379	-0.048218	-0.010529	0.005188	0.15198	-0.025024	0.12009	0.005341	0.007172	0.012054	0	0.027161	0.014343	-0.24674	0.036469	-0.11719	-0.016022	-0.070953	0.097046	0.18219	0.19531	0.076294	-0.00946	0.056305	-0.24063	-0.030212	0	0.00473
13.479	-0.00351	0.13702	-0.090179	-0.002899	-0.036163	-0.06958	-0.023499	0.014343	0.14923	0.016479	0.19638	-0.003052	-0.065002	0.055542	-0.0354	0.013733	0.014343	-0.20676	0.011444	0.015869	-0.014801	-0.21545	0.15289	0.13611	0.095978	0.15152	-0.008392	0.006409	-0.94498	-0.32974	0.00061	0.002289
13.48	-0.004883	0.13962	-0.077362	-0.001068	-0.063324	-0.09552	-0.063019	0.007172	0.13977	0.010223	0.19318	0.001373	-0.070801	0.020905	-0.048676	0.031281	0.029297	-0.16403	0.047913	0.085907	-0.012207	-0.34515	0.053558	-0.065765	0.056	0.10407	0.070953	0.066223	-0.40695	-0.40024	0.003204	-0.009918
13.481	-0.007019	0.13733	-0.094299	0.003967	-0.061493	-0.098419	-0.059357	0.009766	0.13092	-0.027771	0.096893	0.00885	0.008392	-0.018921	0.36575	0.023804	0.018616	-0.15564	0.22964	0.059967	-0.041809	-0.42877	-0.078278	-0.16205	0.050049	-0.10208	0.062561	-0.023651	-0.077057	-0.34729	-0.004272	-0.011749
13.482	0.007782	0.15701	-0.069427	-0.015869	-0.043335	-0.090027	-0.017395	0.004425	0.1268	-0.027008	0.11093	0.006104	0.097046	-0.025635	0.096893	0.041962	0.033264	-0.12833	0.62653	0.00885	-0.07019	-0.28793	0.18692	-0.1918	0.022888	-0.15656	0.12024	0.09613	1.0101	-0.074615	0	-0.013733
13.483	0.001984	0.16663	-0.058899	-0.003052	-0.014801	-0.084686	-0.002441	0.005341	0.13351	-0.028992	-0.1326	0.000305	0.16113	-0.045319	-0.10178	0.048981	0.023804	-0.14328	0.4602	-0.015106	-0.065308	-0.1712	0.3035	-0.078583	0.020447	-0.017242	0.10773	0.074158	1.1739	0.011902	-0.002136	-0.013275
13.484	0.006714	0.17975	-0.065155	0.008087	0.035095	-0.058289	0.008392	0.003052	0.12833	-0.031738	-0.27283	0.00473	0.14984	-0.02655	0.23025	0.033722	0.005035	-0.22583	0.15915	0.009003	-0.040588	-0.092773	0.1091	-0.037231	0.066071	0.014801	0.12009	-0.029297	0.008392	0.23224	-0.000305	-0.013123
13.485	0.004578	0.20462	-0.089417	0.002899	0.039673	-0.042725	0.000305	0.009613	0.12207	-0.028381	-0.053406	-0.00412	0.10132	-0.026398	0.10239	0.02655	0.001526	-0.17044	-0.32013	-0.015411	-0.0177	-0.041046	0.009308	-0.058746	-0.033112	0.06073	-0.03067	-0.041962	-0.27344	0.003815	-0.003357	-0.010376
13.486	0.002594	0.21194	-0.093994	0.007172	0.052185	-0.060425	-0.002747	0.007324	0.10605	-0.03418	0.082397	0.006561	0.056763	-0.023499	0.2066	0.018616	-0.000153	-0.12436	-0.2829	-0.030212	-0.014648	-0.060272	0.005035	-0.090485	-0.072021	0.044556	-0.091858	-0.050354	-0.45731	-0.23911	-0.002289	-0.006104
13.487	-0.003357	0.19882	-0.087738	0.003052	0.049896	-0.036926	0.00824	0.008087	0.075684	-0.033875	0.046844	0.00412	0.041504	-0.022278	0.20248	0.018311	-0.005035	-0.11322	-0.023346	-0.00946	-0.025177	-0.097961	-0.028229	-0.20676	-0.011444	0.076447	-0.14069	-0.066376	-0.19684	0.25116	-0.001068	0.007172
13.488	0.002899	0.19516	-0.096741	-0.006104	0.023346	-0.052032	0.018921	0.011139	0.060577	-0.055389	0.007629	0	0.027008	0.039978	0.12253	0.023193	-0.003662	-0.11368	0.11246	0.007629	-0.029602	-0.12161	-0.009613	-0.19486	0.027924	0.12299	-0.24048	-0.028687	0.40375	0.32898	0.000458	0.001526
13.489	0.000916	0.18784	-0.092621	-0.002441	-0.019531	-0.067444	0.010071	0.006561	0.061188	-0.026703	0.039673	0.002747	0.072937	0.027924	-0.15686	0.038147	0.005188	-0.19134	0.13962	0.027618	-0.03006	-0.10712	-0.076599	-0.07019	-0.059662	0.10925	-0.12726	0.097351	0.49347	-0.032806	0.000305	-0.005798
13.49	0.003815	0.18341	-0.12573	-0.023956	-0.055695	-0.10773	0.022888	0.010376	0.072479	-0.014343	-0.019531	0.006866	0.10574	-0.020142	-0.049438	0.027161	0.010834	-0.24765	-0.2002	0.013733	-0.032501	-0.25177	-0.13184	0.11856	-0.090332	0.094147	-0.038452	-0.000916	-0.20905	-0.040741	-0.004425	-0.002899
13.491	0.006866	0.21194	-0.12222	-0.010071	-0.005188	-0.097504	0.00824	0.005035	0.06958	-0.035248	-0.10513	0.007782	0.053253	-0.02594	-0.29022	0.012054	0.015869	-0.11063	-0.019836	0.037842	-0.028687	-0.34149	-0.12192	0.30426	-0.028076	0.065918	-0.1503	0.007935	0.78156	-0.010223	0	0.001678
13.492	0.01709	0.18936	-0.11078	0	-0.014496	-0.057831	-0.012665	0.002289	0.059052	-0.046539	-0.11978	0.002289	0.048065	0.010834	-0.27222	0.023956	0.024414	-0.095367	0.20523	0.055389	-0.049438	-0.36392	-0.046082	0.23804	0.069885	0.048523	-0.21515	0.00061	0.20126	-0.005798	-0.000305	0.000763
13.493	0.013733	0.16647	-0.094452	-0.010376	-0.087433	-0.029602	-0.010529	0.002441	0.064697	-0.080719	-0.054169	-0.006561	0.10407	0.062561	-0.25604	0.019836	0.036163	-0.15442	0.074463	0.071716	-0.028076	-0.29159	0.10864	0.1268	0.045776	0.024414	0.28503	-0.022736	-2.5005	0.10742	-0.00061	0.000763
13.494	-0.000305	0.16602	-0.10544	-0.005646	-0.045013	-0.048523	0.003052	0	0.063629	-0.10834	-0.038757	-0.002899	0.11719	0.009918	0.079956	0.032349	0.039063	-0.011139	-0.17639	0.10254	-0.054932	-0.28671	0.24567	0.020294	0.01709	0.026398	0.33112	-0.023041	-1.4392	0.18677	-0.004578	0.000763
13.495	0.016785	0.18066	-0.08606	-0.004425	0.055237	-0.061798	-0.008392	0.005646	0.063324	-0.054169	-0.002594	-0.007629	0.079041	-0.057373	-0.007782	0.032806	0.018463	-0.033112	0.056458	0.059509	-0.048828	-0.28839	0.19577	-0.15717	0.015717	0.028076	0.20432	-0.018311	0.2417	0.12833	0.001373	0.003357
13.496	0.005646	0.13779	-0.096283	-0.002289	0.054779	-0.055389	0.004272	0.001373	0.067902	-0.002594	0.018463	0.004578	0.058136	-0.13428	-0.1181	0.028992	0.005493	0.002594	0.28976	0.027008	-0.046692	-0.15686	0.071716	-0.14297	0.041046	0.034485	0.19592	-0.019989	1.2267	-0.036469	-0.004578	-0.000916
13.497	0.002289	0.13809	-0.084229	-0.008087	0.015869	-0.038757	0.013885	0.007172	0.067139	0.05127	0.011139	-0.002747	0.036774	-0.14694	-0.028839	0.023804	-0.014496	-0.0914	-0.24551	0.020447	-0.026398	0.22415	0.041962	-0.1326	0.075073	-0.018616	0.20554	-0.013733	0.24963	-0.029449	-0.001831	0.003357
13.498	0.006409	0.14191	-0.04776	-0.002441	-0.015259	-0.04776	0.011444	0.005951	0.053253	0.068054	-0.005798	-0.006409	0.037689	-0.073853	0.027313	0.018311	-0.010986	-0.041656	-0.35858	-0.052643	0.012512	0.62439	0.064392	-0.033264	0.13229	0.005035	0.35111	-0.004578	-0.62424	-0.066833	-0.004272	-0.003052
13.499	-0.001526	0.11856	-0.03479	0.007324	-0.068512	-0.041046	0.008698	0.00824	0.061951	0.070038	-0.00412	-0.011597	0.004425	-0.040131	0.033112	0.016632	-0.022278	-0.009766	-0.36423	-0.16312	0.03067	0.43854	0.068054	0.027924	0.17258	0.020447	0.28732	-0.000916	-1.1246	-0.15503	-0.001831	-0.006104
